HIERARCHY
ROOT Hips
{
	OFFSET 0.000000 0.000000 0.000000
	CHANNELS 6 Xposition Yposition Zposition Zrotation Yrotation Xrotation 
	JOINT LHipJoint
	{
		OFFSET 0.000000 0.000000 0.000000
		CHANNELS 3 Zrotation Yrotation Xrotation
		JOINT LeftUpLeg
		{
			OFFSET 1.363060 -1.794630 0.839290
			CHANNELS 3 Zrotation Yrotation Xrotation
			JOINT LeftLeg
			{
				OFFSET 2.448110 -6.726130 0.000000
				CHANNELS 3 Zrotation Yrotation Xrotation
				JOINT LeftFoot
				{
					OFFSET 2.562200 -7.039590 0.000000
					CHANNELS 3 Zrotation Yrotation Xrotation
					JOINT LeftToeBase
					{
						OFFSET 0.157640 -0.433110 2.322550
						CHANNELS 3 Zrotation Yrotation Xrotation
						End Site
						{
							OFFSET 0.000000 0.000000 0.000000
						}
					}
				}
			}
		}
	}
	JOINT RHipJoint
	{
		OFFSET 0.000000 0.000000 0.000000
		CHANNELS 3 Zrotation Yrotation Xrotation
		JOINT RightUpLeg
		{
			OFFSET -1.305520 -1.794630 0.839290
			CHANNELS 3 Zrotation Yrotation Xrotation
			JOINT RightLeg
			{
				OFFSET -2.542530 -6.985550 0.000000
				CHANNELS 3 Zrotation Yrotation Xrotation
				JOINT RightFoot
				{
					OFFSET -2.568260 -7.056230 0.000000
					CHANNELS 3 Zrotation Yrotation Xrotation
					JOINT RightToeBase
					{
						OFFSET -0.164730 -0.452590 2.363150
						CHANNELS 3 Zrotation Yrotation Xrotation
						End Site
						{
							OFFSET 0.000000 0.000000 0.000000
						}
					}
				}
			}
		}
	}
	JOINT LowerBack
	{
		OFFSET 0.000000 0.000000 0.000000
		CHANNELS 3 Zrotation Yrotation Xrotation
		JOINT Spine
		{
			OFFSET 0.028270 2.035590 -0.193380
			CHANNELS 3 Zrotation Yrotation Xrotation
			JOINT Spine1
			{
				OFFSET 0.056720 2.048850 -0.042750
				CHANNELS 3 Zrotation Yrotation Xrotation
				JOINT Neck
				{
					OFFSET 0.000000 0.000000 0.000000
					CHANNELS 3 Zrotation Yrotation Xrotation
					JOINT Neck1
					{
						OFFSET -0.054170 1.746240 0.172020
						CHANNELS 3 Zrotation Yrotation Xrotation
						JOINT Head
						{
							OFFSET 0.104070 1.761360 -0.123970
							CHANNELS 3 Zrotation Yrotation Xrotation
							End Site
							{
								OFFSET 0.000000 0.000000 0.000000
							}
						}
					}
				}
				JOINT LeftShoulder
				{
					OFFSET 0.000000 0.000000 0.000000
					CHANNELS 3 Zrotation Yrotation Xrotation
					JOINT LeftArm
					{
						OFFSET 3.362410 1.200890 -0.311210
						CHANNELS 3 Zrotation Yrotation Xrotation
						JOINT LeftForeArm
						{
							OFFSET 4.983000 -0.000000 -0.000000
							CHANNELS 3 Zrotation Yrotation Xrotation
							JOINT LeftHand
							{
								OFFSET 3.483560 -0.000000 -0.000000
								CHANNELS 3 Zrotation Yrotation Xrotation
								JOINT LeftFingerBase
								{
									OFFSET 0.000000 0.000000 0.000000
									CHANNELS 3 Zrotation Yrotation Xrotation
									JOINT LeftHandIndex1
									{
										OFFSET 0.715260 -0.000000 -0.000000
										CHANNELS 3 Zrotation Yrotation Xrotation
										End Site
										{
											OFFSET 0.000000 0.000000 0.000000
										}
									}
								}
								JOINT LThumb
								{
									OFFSET 0.000000 0.000000 0.000000
									CHANNELS 3 Zrotation Yrotation Xrotation
									End Site
									{
										OFFSET 0.000000 0.000000 0.000000
									}
								}
							}
						}
					}
				}
				JOINT RightShoulder
				{
					OFFSET 0.000000 0.000000 0.000000
					CHANNELS 3 Zrotation Yrotation Xrotation
					JOINT RightArm
					{
						OFFSET -3.136600 1.374050 -0.404650
						CHANNELS 3 Zrotation Yrotation Xrotation
						JOINT RightForeArm
						{
							OFFSET -5.241900 -0.000000 -0.000000
							CHANNELS 3 Zrotation Yrotation Xrotation
							JOINT RightHand
							{
								OFFSET -3.444170 -0.000000 -0.000000
								CHANNELS 3 Zrotation Yrotation Xrotation
								JOINT RightFingerBase
								{
									OFFSET 0.000000 0.000000 0.000000
									CHANNELS 3 Zrotation Yrotation Xrotation
									JOINT RightHandIndex1
									{
										OFFSET -0.622530 -0.000000 -0.000000
										CHANNELS 3 Zrotation Yrotation Xrotation
										End Site
										{
											OFFSET 0.000000 0.000000 0.000000
										}
									}
								}
								JOINT RThumb
								{
									OFFSET 0.000000 0.000000 0.000000
									CHANNELS 3 Zrotation Yrotation Xrotation
									End Site
									{
										OFFSET 0.000000 0.000000 0.000000
									}
								}
							}
						}
					}
				}
			}
		}
	}
}
MOTION
Frames: 10
Frame Time: 0.008333
9.762216 14.841237 1.070923 54.235750 -84.227828 9.352753 -8.460066 -1.904509 1.957309 -8.943181 -15.515035 -103.090311 1.808396 6.145363 79.555592 1.652417 5.717680 -8.913811 0.305300 -0.000000 -47.728200 8.319376 1.790975 3.409809 4.726613 10.851083 -93.073986 1.150029 -5.228414 64.012751 -3.124196 -2.589621 -31.520948 2.063300 -0.000000 -53.766500 1.104621 -0.683059 -0.602075 -0.599128 -0.826847 -3.254940 -4.395042 -0.986999 -0.928121 7.755853 -1.666599 -9.859093 -2.885791 -0.145046 -1.550078 0.000000 0.000000 0.000000 -2.978744 6.126396 5.739278 -68.370124 -2.529054 0.683827 -1.457681 -20.149511 -0.016677 3.586698 12.648225 0.401587 -0.057449 0.066724 -0.000000 0.000000 0.000000 0.000000 0.000000 0.000000 0.000000 13.896812 2.629902 2.205162 70.745036 23.157232 -8.812696 -0.256625 51.115021 -0.071682 -10.438772 10.902572 -1.051771 0.075962 -0.484504 0.000000 0.000000 0.000000 0.000000 0.000000 0.000000 0.000000 
9.664496 14.898049 1.064897 54.842003 -84.209350 8.595855 -8.445832 -1.911627 1.978522 -8.940505 -15.555606 -103.134659 1.953090 6.127919 79.931111 1.724394 6.301558 -7.583839 0.496500 -0.000000 -46.204400 8.350518 1.743149 3.396992 4.871852 10.654143 -91.971839 1.266051 -5.098537 62.983107 -3.110181 -2.498284 -31.460127 2.039200 -0.000000 -54.011800 1.050674 -0.657829 -0.646828 -0.610004 -0.800089 -3.267391 -4.375631 -0.958511 -0.912991 7.728576 -1.789934 -9.918197 -2.879248 -0.144011 -1.562348 0.000000 0.000000 0.000000 -2.882253 6.229312 5.767179 -68.263801 -1.435329 0.661809 -1.482580 -20.179046 -0.016730 3.566107 12.731606 0.402183 -0.058257 0.063599 -0.000000 0.000000 0.000000 0.000000 0.000000 0.000000 0.000000 13.806962 2.554562 2.176013 70.548160 23.376213 -8.387349 -0.219063 51.795964 -0.070590 -10.270760 10.635981 -1.010457 0.076157 -0.484036 0.000000 0.000000 0.000000 0.000000 0.000000 0.000000 0.000000 
9.566856 14.952715 1.059808 55.442104 -84.206746 7.833875 -8.425880 -1.919287 1.997766 -8.934254 -15.603834 -103.184010 2.081283 6.109944 80.287367 1.815880 6.926196 -6.462829 0.684600 0.000000 -44.464400 8.380700 1.697739 3.371555 5.029953 10.454121 -90.867393 1.376975 -4.972783 61.986806 -3.090158 -2.401504 -31.372507 2.010300 0.000000 -54.321600 0.991244 -0.633075 -0.673725 -0.621503 -0.773086 -3.273997 -4.354769 -0.929595 -0.896656 7.689992 -1.920723 -9.974668 -2.869440 -0.142707 -1.574108 0.000000 0.000000 0.000000 -2.787823 6.357341 5.790893 -68.164305 -0.388651 0.634274 -1.504238 -20.282565 -0.016860 3.569961 12.810925 0.405378 -0.059231 0.060707 -0.000000 0.000000 0.000000 0.000000 0.000000 0.000000 0.000000 13.693008 2.472551 2.141602 70.376255 23.633227 -7.927848 -0.184434 52.489753 -0.069829 -10.146950 10.425734 -0.979343 0.076774 -0.484348 0.000000 0.000000 0.000000 0.000000 0.000000 0.000000 0.000000 
9.469103 15.005360 1.055704 56.026924 -84.222037 7.080488 -8.401520 -1.925629 2.018165 -8.921657 -15.658594 -103.242810 2.189851 6.092303 80.603963 1.920448 7.566078 -5.571229 0.863000 0.000000 -42.576800 8.409867 1.653332 3.336353 5.199719 10.255920 -89.767439 1.482546 -4.850855 61.022359 -3.063400 -2.298886 -31.249825 1.975600 0.000000 -54.657500 0.929587 -0.608760 -0.689620 -0.633237 -0.746109 -3.279102 -4.334148 -0.900650 -0.886536 7.637264 -2.034723 -10.017788 -2.857405 -0.141382 -1.581928 0.000000 0.000000 0.000000 -2.701056 6.466857 5.811679 -68.073194 0.669635 0.559010 -1.521220 -20.500273 -0.017022 3.592494 12.881011 0.410375 -0.060227 0.058081 -0.000000 0.000000 0.000000 0.000000 0.000000 0.000000 0.000000 13.550872 2.407716 2.103492 70.232961 23.898506 -7.461574 -0.152645 53.214110 -0.069333 -10.049957 10.287066 -0.957830 0.077502 -0.485698 0.000000 0.000000 0.000000 0.000000 0.000000 0.000000 0.000000 
9.371101 15.056021 1.052656 56.594413 -84.259225 6.342106 -8.374044 -1.930239 2.039447 -8.901109 -15.713659 -103.314205 2.276372 6.076493 80.863044 2.030717 8.190379 -4.921367 1.022300 -0.000000 -40.629600 8.437399 1.608669 3.291981 5.381381 10.065562 -88.673737 1.583188 -4.732015 60.084282 -3.029180 -2.188872 -31.086355 1.934099 -0.000000 -55.043900 0.865525 -0.583604 -0.693995 -0.645043 -0.717858 -3.280252 -4.312947 -0.870297 -0.875208 7.575549 -2.150722 -10.056447 -2.842679 -0.139865 -1.588666 0.000000 0.000000 0.000000 -2.617153 6.605591 5.828267 -67.994027 1.677607 0.472610 -1.534886 -20.796472 -0.017206 3.628185 12.931353 0.416172 -0.061265 0.055809 -0.000000 0.000000 0.000000 0.000000 0.000000 0.000000 0.000000 13.387439 2.342157 2.058891 70.114575 24.194447 -6.968487 -0.122811 53.968265 -0.069063 -9.977530 10.217830 -0.945018 0.078397 -0.488029 0.000000 0.000000 0.000000 0.000000 0.000000 0.000000 0.000000 
9.272752 15.104775 1.050699 57.134596 -84.318485 5.630765 -8.344623 -1.931878 2.063787 -8.869449 -15.766897 -103.404120 2.339143 6.063527 81.046119 2.139242 8.766418 -4.514322 1.152500 -0.000000 -38.718800 8.462838 1.562672 3.240093 5.574652 9.886213 -87.587757 1.679722 -4.615640 59.168317 -2.987995 -2.070325 -30.886358 1.886300 -0.000000 -55.459500 0.800296 -0.557425 -0.691026 -0.656761 -0.688301 -3.278983 -4.291770 -0.838547 -0.863492 7.506986 -2.264263 -10.088733 -2.825783 -0.138233 -1.593635 0.000000 0.000000 0.000000 -2.535521 6.766009 5.840914 -67.929291 2.644108 0.366676 -1.545418 -21.178216 -0.017382 3.668109 12.958366 0.421770 -0.062265 0.053909 -0.000000 0.000000 0.000000 0.000000 0.000000 0.000000 0.000000 13.205972 2.280523 2.008399 70.018385 24.514669 -6.454329 -0.094447 54.757422 -0.068930 -9.916535 10.206841 -0.938705 0.079310 -0.491225 0.000000 0.000000 0.000000 0.000000 0.000000 0.000000 0.000000 
9.173904 15.151558 1.049781 57.639102 -84.399101 4.958476 -8.314394 -1.929467 2.092678 -8.824609 -15.815405 -103.517621 2.376699 6.054238 81.135068 2.239103 9.262902 -4.340692 1.244700 0.000000 -36.936600 8.485681 1.514423 3.181874 5.779168 9.720478 -86.508944 1.773206 -4.500788 58.268743 -2.940825 -1.942574 -30.657460 1.833300 -0.000000 -55.899200 0.733767 -0.530027 -0.683284 -0.668397 -0.657288 -3.275084 -4.270427 -0.805246 -0.848239 7.436363 -2.383035 -10.118139 -2.806808 -0.136446 -1.597894 0.000000 0.000000 0.000000 -2.451648 6.962180 5.849334 -67.881873 3.549359 0.253168 -1.553653 -21.633195 -0.017528 3.703101 12.960552 0.425969 -0.063191 0.052384 -0.000000 0.000000 0.000000 0.000000 0.000000 0.000000 0.000000 13.013786 2.215467 1.951949 69.938879 24.867449 -5.911054 -0.066967 55.578381 -0.068866 -9.859799 10.233262 -0.936093 0.080233 -0.495015 0.000000 0.000000 0.000000 0.000000 0.000000 0.000000 0.000000 
9.074328 15.196281 1.049832 58.099642 -84.495459 4.337119 -8.284074 -1.920851 2.129928 -8.764809 -15.862788 -103.660615 2.387761 6.048328 81.109532 2.324658 9.654141 -4.377583 1.294000 -0.000000 -35.381700 8.505975 1.463604 3.119346 5.992258 9.566108 -85.438915 1.864780 -4.386983 57.382533 -2.889487 -1.805494 -30.414267 1.777100 -0.000000 -56.322000 0.666920 -0.502799 -0.677418 -0.679961 -0.626393 -3.271969 -4.250032 -0.772065 -0.834197 7.364526 -2.492336 -10.138007 -2.786683 -0.134693 -1.599224 0.000000 0.000000 0.000000 -2.368484 7.159671 5.854684 -67.853027 4.436650 0.106845 -1.559493 -22.186293 -0.017612 3.720974 12.942946 0.427470 -0.063925 0.051170 -0.000000 0.000000 0.000000 0.000000 0.000000 0.000000 0.000000 12.813160 2.161044 1.892185 69.873376 25.233120 -5.355140 -0.040353 56.434066 -0.068758 -9.790760 10.274235 -0.933480 0.080956 -0.499150 0.000000 0.000000 0.000000 0.000000 0.000000 0.000000 0.000000 
8.974071 15.238963 1.050737 58.507497 -84.604698 3.774948 -8.254112 -1.905203 2.175996 -8.690995 -15.907108 -103.835063 2.370814 6.045865 80.950876 2.391410 9.920054 -4.596939 1.298800 0.000001 -34.113300 8.523097 1.410100 3.052436 6.212673 9.423068 -84.375495 1.955169 -4.273576 56.506174 -2.835713 -1.660793 -30.167901 1.719600 -0.000001 -56.747000 0.597209 -0.475771 -0.673277 -0.691881 -0.595533 -3.267656 -4.229679 -0.738866 -0.814973 7.297920 -2.611324 -10.156884 -2.765023 -0.132816 -1.600257 0.000000 0.000000 0.000000 -2.276769 7.388888 5.856304 -67.844512 5.262877 -0.039115 -1.564618 -22.810548 -0.017639 3.714992 12.910317 0.425872 -0.064505 0.050239 -0.000000 0.000000 0.000000 0.000000 0.000000 0.000000 0.000000 12.613535 2.098542 1.828640 69.814774 25.632574 -4.766047 -0.014037 57.311770 -0.068583 -9.713260 10.305127 -0.929268 0.081652 -0.503263 0.000000 0.000000 0.000000 0.000000 0.000000 0.000000 0.000000 
8.872990 15.279501 1.052335 58.859571 -84.720836 3.277932 -8.224815 -1.880720 2.233120 -8.605227 -15.951399 -104.041804 2.324256 6.045758 80.638386 2.436734 10.050401 -4.960673 1.263400 0.000000 -33.187100 8.537101 1.354058 2.981972 6.437276 9.288500 -83.318967 2.044763 -4.160169 55.638345 -2.781501 -1.511292 -29.929976 1.662700 0.000000 -57.162300 0.522919 -0.450040 -0.673991 -0.704642 -0.565804 -3.263104 -4.209500 -0.706778 -0.790805 7.239090 -2.740250 -10.174753 -2.742143 -0.130847 -1.600942 0.000000 0.000000 0.000000 -2.174023 7.640655 5.854698 -67.856434 6.036460 -0.181862 -1.569553 -23.508385 -0.017601 3.678183 12.871090 0.420476 -0.064903 0.049515 -0.000000 0.000000 0.000000 0.000000 0.000000 0.000000 0.000000 12.419859 2.027240 1.762900 69.758839 26.062731 -4.144239 0.012060 58.205187 -0.068307 -9.624502 10.308084 -0.921455 0.082333 -0.507105 0.000000 0.000000 0.000000 0.000000 0.000000 0.000000 0.000000 
